Coordinates
version=1
nRows=37
nColumns=38
inDegrees=no

Units are S.I. units (second, meters, Newtons, ...)
If the header above contains a line with 'inDegrees', this indicates whether rotational values are in degrees (yes) or radians (no).

endheader
time	pelvis_tilt	pelvis_list	pelvis_rotation	pelvis_tx	pelvis_ty	pelvis_tz	hip_flexion_r	hip_adduction_r	hip_rotation_r	knee_angle_r	ankle_angle_r	subtalar_angle_r	mtp_angle_r	hip_flexion_l	hip_adduction_l	hip_rotation_l	knee_angle_l	ankle_angle_l	subtalar_angle_l	mtp_angle_l	lumbar_extension	lumbar_bending	lumbar_rotation	arm_flex_r	arm_add_r	arm_rot_r	elbow_flex_r	pro_sup_r	wrist_flex_r	wrist_dev_r	arm_flex_l	arm_add_l	arm_rot_l	elbow_flex_l	pro_sup_l	wrist_flex_l	wrist_dev_l
0	1.68008	1.46002	0.0118594	0.680773	-0.629208	0.932528	0.353392	0.0223932	-0.208187	0.578239	-0.22873	0	0	-0.186091	-0.243783	-0.162993	0.777892	-0.39953	0	0	-0.0247845	0.149361	-0.192162	-0.056747	-0.325041	0.411056	0.653288	1.44113	0	0	-0.0119168	-0.240181	0.26711	0.824423	1.5708	0	0
0.01	1.71994	1.45338	-0.0303573	0.68276	-0.618191	0.933609	0.33269	0.0334447	-0.212723	0.573308	-0.221838	0	0	-0.163368	-0.255792	-0.147892	0.83697	-0.413794	0	0	-0.0291571	0.155978	-0.188466	-0.0525648	-0.327342	0.417964	0.663037	1.44067	0	0	-0.0251216	-0.240629	0.269756	0.817408	1.5708	0	0
0.02	1.76419	1.44674	-0.0764379	0.684597	-0.607345	0.934825	0.309148	0.0441452	-0.217913	0.565336	-0.21347	0	0	-0.141041	-0.265949	-0.131227	0.895821	-0.425817	0	0	-0.034486	0.163222	-0.184342	-0.0485304	-0.331247	0.424943	0.675142	1.44124	0	0	-0.0345637	-0.236743	0.267949	0.806191	1.5708	0	0
0.03	1.79966	1.44163	-0.114337	0.686401	-0.596818	0.935954	0.287195	0.0531877	-0.222162	0.558767	-0.206531	0	0	-0.116859	-0.273088	-0.114803	0.955655	-0.431599	0	0	-0.0399397	0.168282	-0.179475	-0.0429102	-0.334033	0.430473	0.685762	1.44335	0	0	-0.0432093	-0.233924	0.266932	0.79503	1.5708	0	0
0.04	1.83023	1.43774	-0.147401	0.688095	-0.586606	0.937079	0.266329	0.0609257	-0.226046	0.551697	-0.200083	0	0	-0.0908294	-0.278288	-0.0998727	1.01611	-0.438171	0	0	-0.0457469	0.171642	-0.1739	-0.0361748	-0.336515	0.435288	0.695911	1.44594	0	0	-0.0509989	-0.232945	0.268711	0.783373	1.5708	0	0
0.05	1.8743	1.4347	-0.193025	0.689558	-0.576445	0.938489	0.242857	0.0677542	-0.226632	0.541973	-0.194425	0	0	-0.066667	-0.281551	-0.0866302	1.074	-0.444734	0	0	-0.0533438	0.173586	-0.168257	-0.0291616	-0.338614	0.438491	0.705459	1.44848	0	0	-0.0570363	-0.231733	0.271581	0.770174	1.5708	0	0
0.06	1.92855	1.43275	-0.248485	0.690902	-0.566451	0.940133	0.218025	0.0728314	-0.226304	0.530929	-0.189986	0	0	-0.0437551	-0.282387	-0.0759578	1.12893	-0.444642	0	0	-0.0623932	0.173747	-0.162042	-0.0216734	-0.34001	0.440098	0.714043	1.45128	0	0	-0.0611564	-0.230539	0.275707	0.755649	1.5708	0	0
0.07	1.98803	1.43154	-0.308047	0.692059	-0.556733	0.941939	0.192988	0.0756394	-0.228203	0.520083	-0.186722	0	0	-0.020963	-0.280345	-0.0649463	1.18006	-0.431138	0	0	-0.0720729	0.172596	-0.155961	-0.0136027	-0.340311	0.438997	0.720834	1.45382	0	0	-0.0630366	-0.229197	0.280999	0.73947	1.5708	0	0
0.08	2.04671	1.43071	-0.36665	0.693201	-0.547098	0.943799	0.167409	0.0775071	-0.231386	0.507508	-0.184816	0	0	0.000997061	-0.276333	-0.054254	1.22563	-0.403109	0	0	-0.0812827	0.170299	-0.149353	-0.00575958	-0.339268	0.434655	0.726181	1.45614	0	0	-0.063797	-0.228128	0.287039	0.722386	1.5708	0	0
0.09	2.10342	1.43027	-0.424177	0.694405	-0.537474	0.945642	0.141841	0.078802	-0.233099	0.494626	-0.183144	0	0	0.0222049	-0.271433	-0.0470456	1.26564	-0.369842	0	0	-0.0900099	0.166828	-0.141972	0.0026769	-0.337174	0.429315	0.72969	1.4584	0	0	-0.0654054	-0.228225	0.292968	0.707055	1.5708	0	0
0.1	2.16066	1.4296	-0.48289	0.695665	-0.527862	0.947482	0.115284	0.0799996	-0.234	0.480292	-0.181599	0	0	0.0426897	-0.266647	-0.043372	1.3009	-0.336624	0	0	-0.098672	0.162934	-0.13408	0.0115878	-0.334779	0.423962	0.732155	1.46101	0	0	-0.0675634	-0.228758	0.297768	0.693378	1.5708	0	0
0.11	2.21851	1.42841	-0.542732	0.69699	-0.51828	0.949303	0.0877965	0.0813352	-0.234742	0.46455	-0.180544	0	0	0.0626189	-0.262572	-0.0431394	1.33119	-0.308184	0	0	-0.107604	0.158653	-0.126173	0.021373	-0.332106	0.419251	0.733757	1.46424	0	0	-0.0712384	-0.230876	0.301944	0.683758	1.5708	0	0
0.12	2.27256	1.42755	-0.598804	0.698303	-0.508686	0.951003	0.0612181	0.0820244	-0.235787	0.449022	-0.179533	0	0	0.0830665	-0.258154	-0.0442976	1.35544	-0.287984	0	0	-0.115372	0.15378	-0.11923	0.032155	-0.329547	0.416714	0.734485	1.46755	0	0	-0.0766743	-0.234239	0.306004	0.677316	1.5708	0	0
0.13	2.33175	1.42678	-0.66006	0.699586	-0.49907	0.952612	0.0348696	0.0812797	-0.23742	0.43481	-0.17833	0	0	0.102513	-0.253277	-0.0479289	1.37311	-0.272646	0	0	-0.123086	0.147924	-0.112887	0.0433195	-0.327561	0.416657	0.735275	1.47327	0	0	-0.0825234	-0.237822	0.309513	0.672695	1.5708	0	0
0.14	2.39457	1.42617	-0.725564	0.70085	-0.489542	0.954115	0.00890197	0.0792982	-0.238096	0.420778	-0.177373	0	0	0.120848	-0.247818	-0.0540838	1.38435	-0.26116	0	0	-0.130955	0.141046	-0.106668	0.0552309	-0.325862	0.418005	0.736142	1.48052	0	0	-0.0891397	-0.24174	0.310995	0.670528	1.5708	0	0
0.15	2.46085	1.42496	-0.795295	0.702134	-0.480157	0.955561	-0.0170252	0.0766105	-0.237978	0.40729	-0.176969	0	0	0.137158	-0.242535	-0.062781	1.38948	-0.251063	0	0	-0.139799	0.133538	-0.100269	0.0681918	-0.324201	0.420373	0.736922	1.48888	0	0	-0.0971862	-0.247161	0.31159	0.672821	1.5708	0	0
0.16	2.52596	1.42334	-0.864411	0.703452	-0.470777	0.956891	-0.0425067	0.0734219	-0.238203	0.394173	-0.176816	0	0	0.15262	-0.238163	-0.0749474	1.38917	-0.242283	0	0	-0.148638	0.125692	-0.0936435	0.0811783	-0.322815	0.423297	0.738278	1.49741	0	0	-0.105914	-0.253129	0.311407	0.677409	1.5708	0	0
0.17	2.59496	1.4197	-0.937538	0.704755	-0.461393	0.958228	-0.0704494	0.0705008	-0.237763	0.379089	-0.1771	0	0	0.16484	-0.235646	-0.0914974	1.38373	-0.234135	0	0	-0.15943	0.117888	-0.0874949	0.0943601	-0.3214	0.426152	0.740485	1.50743	0	0	-0.11523	-0.259473	0.310506	0.684551	1.5708	0	0
0.18	2.66408	1.41453	-1.01008	0.705828	-0.45196	0.959471	-0.0999003	0.0672612	-0.236381	0.363314	-0.177574	0	0	0.174879	-0.234439	-0.1119	1.37402	-0.227315	0	0	-0.17129	0.110306	-0.0821985	0.106692	-0.320498	0.427821	0.74473	1.51664	0	0	-0.124352	-0.264995	0.307669	0.692433	1.5708	0	0
0.19	2.72977	1.40783	-1.07878	0.706784	-0.442464	0.960574	-0.130654	0.0639796	-0.236686	0.347243	-0.178262	0	0	0.182629	-0.234997	-0.136156	1.36	-0.220862	0	0	-0.184108	0.102867	-0.0774719	0.118277	-0.319686	0.428119	0.750594	1.52435	0	0	-0.134257	-0.27104	0.303809	0.703053	1.5708	0	0
0.2	2.78966	1.39904	-1.14162	0.707726	-0.43289	0.961555	-0.163472	0.061393	-0.238318	0.329925	-0.179283	0	0	0.187322	-0.238085	-0.16447	1.34169	-0.216952	0	0	-0.198292	0.0959577	-0.0728162	0.129015	-0.318981	0.427257	0.758174	1.53029	0	0	-0.145184	-0.278079	0.300185	0.716912	1.5708	0	0
0.21	2.8432	1.38768	-1.19847	0.708637	-0.423258	0.96246	-0.19886	0.0596643	-0.238906	0.311106	-0.180862	0	0	0.188021	-0.244056	-0.198071	1.31908	-0.218454	0	0	-0.214535	0.0898289	-0.0677363	0.138898	-0.318939	0.425682	0.76795	1.53457	0	0	-0.156958	-0.285263	0.294908	0.733285	1.5708	0	0
0.22	2.88801	1.37537	-1.24694	0.709449	-0.413709	0.963203	-0.233974	0.0581429	-0.237559	0.293223	-0.182698	0	0	0.186544	-0.251428	-0.235328	1.29246	-0.222561	0	0	-0.231334	0.0843868	-0.0620515	0.148053	-0.319809	0.423829	0.779433	1.53663	0	0	-0.168153	-0.291593	0.288687	0.749919	1.5708	0	0
0.23	2.92432	1.36344	-1.28686	0.710147	-0.404288	0.963733	-0.267136	0.0566343	-0.2347	0.276759	-0.184724	0	0	0.183888	-0.257743	-0.272024	1.26108	-0.227278	0	0	-0.247725	0.0794327	-0.0560467	0.156566	-0.321221	0.421437	0.791971	1.53608	0	0	-0.178575	-0.29715	0.281404	0.766465	1.5708	0	0
0.24	2.95542	1.35364	-1.32056	0.710647	-0.394945	0.963981	-0.296232	0.0543548	-0.23219	0.263591	-0.185837	0	0	0.181892	-0.259974	-0.303205	1.22426	-0.230854	0	0	-0.26143	0.074525	-0.0504729	0.164506	-0.322664	0.418894	0.803845	1.53379	0	0	-0.187394	-0.301614	0.274524	0.780295	1.5708	0	0
0.25	2.98283	1.34412	-1.34954	0.710967	-0.385645	0.964016	-0.324467	0.0520735	-0.230709	0.252074	-0.185693	0	0	0.17865	-0.259229	-0.330577	1.18141	-0.235669	0	0	-0.274737	0.0699928	-0.0454812	0.171785	-0.324198	0.415695	0.816418	1.52978	0	0	-0.195788	-0.305588	0.267176	0.794254	1.5708	0	0
0.26	3.00475	1.33676	-1.37216	0.711107	-0.376339	0.963724	-0.349146	0.0497546	-0.230398	0.242559	-0.184845	0	0	0.17672	-0.256055	-0.354075	1.13363	-0.24144	0	0	-0.285336	0.066147	-0.0410171	0.17813	-0.326122	0.412425	0.829006	1.52505	0	0	-0.202819	-0.307831	0.259065	0.805926	1.5708	0	0
0.27	3.0231	1.33091	-1.39018	0.711075	-0.367059	0.963152	-0.371255	0.0477629	-0.230065	0.2349	-0.183145	0	0	0.175646	-0.250845	-0.37382	1.08208	-0.248135	0	0	-0.29426	0.0627124	-0.037274	0.18372	-0.328275	0.409068	0.841699	1.51952	0	0	-0.209145	-0.309352	0.250063	0.816546	1.5708	0	0
0.28	3.03862	1.32678	-1.4045	0.710926	-0.357864	0.962307	-0.390754	0.0460796	-0.229248	0.228888	-0.18024	0	0	0.175855	-0.243661	-0.390928	1.02731	-0.255661	0	0	-0.301505	0.0595543	-0.034155	0.188789	-0.330272	0.405559	0.854083	1.51311	0	0	-0.214643	-0.310514	0.240604	0.826045	1.5708	0	0
0.29	3.0496	1.32467	-1.41383	0.71069	-0.348828	0.96121	-0.407181	0.0450276	-0.227522	0.223764	-0.176543	0	0	0.177565	-0.234775	-0.405312	0.969729	-0.263634	0	0	-0.306982	0.0571864	-0.0310649	0.193445	-0.332418	0.402323	0.86615	1.50605	0	0	-0.218876	-0.310755	0.230597	0.834047	1.5708	0	0
0.3	3.05831	1.32454	-1.41988	0.710308	-0.339822	0.959857	-0.421004	0.0445008	-0.226066	0.219663	-0.17176	0	0	0.180333	-0.223621	-0.415853	0.909934	-0.270843	0	0	-0.310339	0.0553219	-0.0285688	0.19773	-0.334747	0.399843	0.877382	1.49904	0	0	-0.222292	-0.310443	0.221258	0.840826	1.5708	0	0
0.31	3.06155	1.32739	-1.4201	0.709853	-0.330898	0.958244	-0.43027	0.0450068	-0.223638	0.217665	-0.166698	0	0	0.18548	-0.211198	-0.421462	0.848635	-0.275028	0	0	-0.31027	0.0545654	-0.0259507	0.20196	-0.336565	0.397241	0.886282	1.4928	0	0	-0.223907	-0.30948	0.213951	0.844681	1.5708	0	0
0.32	3.062	1.33345	-1.41606	0.709136	-0.321869	0.95637	-0.435321	0.0460157	-0.223044	0.217258	-0.160907	0	0	0.192952	-0.19625	-0.419639	0.784559	-0.275974	0	0	-0.306385	0.0544514	-0.0242437	0.204979	-0.337789	0.393473	0.893514	1.48642	0	0	-0.224171	-0.307426	0.207108	0.845519	1.5708	0	0
0.33	3.05816	1.34285	-1.40663	0.708228	-0.312768	0.954192	-0.435869	0.0476938	-0.222842	0.218955	-0.154425	0	0	0.20272	-0.179221	-0.408694	0.716803	-0.274223	0	0	-0.298509	0.0550331	-0.0233406	0.207035	-0.33829	0.389003	0.898831	1.48159	0	0	-0.223241	-0.305108	0.202503	0.843633	1.5708	0	0
0.34	3.05207	1.35534	-1.39381	0.707118	-0.303658	0.951721	-0.431782	0.0491729	-0.223981	0.224211	-0.145601	0	0	0.213535	-0.158908	-0.385476	0.642707	-0.272763	0	0	-0.287178	0.055552	-0.0232372	0.207866	-0.338378	0.383815	0.902909	1.47909	0	0	-0.220924	-0.302292	0.198842	0.839124	1.5708	0	0
0.35	3.04226	1.37073	-1.37644	0.705766	-0.294566	0.948962	-0.422726	0.0501857	-0.227528	0.234399	-0.134291	0	0	0.223879	-0.135231	-0.347521	0.560338	-0.273321	0	0	-0.272634	0.056207	-0.0240389	0.207713	-0.337973	0.377692	0.905772	1.47994	0	0	-0.217617	-0.298682	0.195522	0.832401	1.5708	0	0
0.36	3.02693	1.38663	-1.35367	0.704304	-0.285423	0.94612	-0.411659	0.0511401	-0.23228	0.247855	-0.122584	0	0	0.229852	-0.110621	-0.297681	0.470752	-0.276595	0	0	-0.257235	0.0573594	-0.0248648	0.206847	-0.337007	0.370636	0.907341	1.48254	0	0	-0.213792	-0.294727	0.193645	0.824417	1.5708	0	0
